<svg xmlns="http://www.w3.org/2000/svg" width="309.871" height="85.148"><path d="M57.726 20.355a4.446 4.446 0 0 1 2.55-.768c1.188 0 2.201.368 3.041 1.106.839.736 1.26 1.741 1.26 3.011 0 .614-.123 1.29-.368 2.026l-12.78 34.96c-.369.984-1.014 1.754-1.936 2.307s-1.936.828-3.042.828c-1.105 0-2.11-.275-3.011-.828a4.476 4.476 0 0 1-1.904-2.307L32.38 34.825l-9.401 25.866a4.483 4.483 0 0 1-1.903 2.307c-.901.553-1.905.828-3.011.828-1.066 0-2.059-.275-2.98-.828s-1.566-1.322-1.936-2.307L.369 25.731C.122 25.036 0 24.38 0 23.767c0-1.27.45-2.284 1.351-3.042s1.967-1.137 3.195-1.137c.983 0 1.874.256 2.674.768.799.514 1.382 1.261 1.751 2.242l9.462 27.22 9.83-27.096c.37-.983.953-1.741 1.752-2.274.799-.53 1.648-.798 2.55-.798.941 0 1.803.268 2.581.798.777.533 1.352 1.312 1.72 2.336l9.401 27.527 9.769-27.713c.368-.982.931-1.729 1.69-2.243zm14.775 41.538c-2.417-1.291-4.28-3.115-5.591-5.469-1.312-2.356-1.967-5.131-1.967-8.326s.655-5.97 1.967-8.325c1.311-2.354 3.174-4.168 5.591-5.438 2.417-1.271 5.223-1.904 8.418-1.904s6 .634 8.418 1.904c2.416 1.27 4.279 3.083 5.591 5.438 1.311 2.355 1.967 5.13 1.967 8.325s-.656 5.97-1.967 8.326c-1.312 2.354-3.175 4.178-5.591 5.469-2.418 1.289-5.223 1.934-8.418 1.934s-6.001-.645-8.418-1.934zm15.177-13.795c0-2.908-.584-5.079-1.751-6.513s-2.837-2.15-5.008-2.15c-4.507 0-6.759 2.888-6.759 8.663s2.252 8.664 6.759 8.664c4.506 0 6.759-2.889 6.759-8.664zm56.343-14.808c.655-.45 1.353-.676 2.09-.676 1.146 0 2.171.39 3.072 1.167.9.779 1.352 1.743 1.352 2.888 0 .492-.123 1.045-.369 1.66l-10.076 22.61c-.369.902-.964 1.588-1.782 2.059a5.103 5.103 0 0 1-2.58.707c-.943 0-1.812-.236-2.611-.707s-1.383-1.156-1.751-2.059l-6.574-15.3-6.329 15.3c-.369.902-.942 1.588-1.721 2.059s-1.658.707-2.642.707c-.943 0-1.823-.236-2.643-.707s-1.412-1.156-1.781-2.059L99.66 38.329c-.245-.574-.368-1.127-.368-1.66 0-1.145.48-2.108 1.443-2.888a5.094 5.094 0 0 1 3.287-1.167c.819 0 1.567.226 2.244.676.675.45 1.197 1.105 1.566 1.965l6.574 16.528 6.696-16.405c.37-.859.912-1.524 1.629-1.997.717-.47 1.505-.706 2.365-.706s1.659.226 2.396.676c.737.453 1.29 1.127 1.659 2.027l6.82 16.405 6.513-16.528c.37-.859.881-1.515 1.537-1.965z" fill="#252D2A"/><path d="M187.855 5.229A15.228 15.228 0 0 0 176.366 0h-.276a15.232 15.232 0 0 0-11.49 5.229 15.223 15.223 0 0 0-3.603 12.099l2.844 20.522a3.265 3.265 0 0 0 3.686 2.785 3.266 3.266 0 0 0 2.788-3.685l-2.845-20.521a8.697 8.697 0 0 1 8.62-9.894h.276a8.701 8.701 0 0 1 6.562 2.985 8.703 8.703 0 0 1 2.056 6.909l-4.781 34.511a3.962 3.962 0 0 1-3.909 3.404h-.13a3.963 3.963 0 0 1-3.911-3.404 3.268 3.268 0 0 0-6.473.895c.717 5.157 5.178 9.047 10.384 9.047h.13c5.205 0 9.667-3.89 10.382-9.047l4.783-34.508a15.236 15.236 0 0 0-3.604-12.098zm-11.628 58.326c-5.952 0-10.796 4.842-10.796 10.797 0 5.951 4.844 10.797 10.796 10.797 5.955 0 10.797-4.846 10.797-10.797.001-5.956-4.842-10.797-10.797-10.797zm0 15.056c-2.35 0-4.26-1.91-4.26-4.26s1.912-4.262 4.26-4.262a4.265 4.265 0 0 1 4.261 4.262 4.264 4.264 0 0 1-4.261 4.26z" fill="#00B97E"/><path d="M241.09 44.749c1.371 1.823 2.057 4.065 2.057 6.728 0 3.646-1.342 6.535-4.023 8.664-2.684 2.131-6.381 3.195-11.092 3.195h-16.096c-1.436 0-2.542-.391-3.319-1.168s-1.167-1.883-1.167-3.316V24.503c0-1.434.39-2.539 1.167-3.317s1.884-1.168 3.319-1.168h15.482c4.505 0 8.08 1.005 10.722 3.011 2.643 2.008 3.964 4.753 3.964 8.232 0 2.254-.606 4.23-1.813 5.932-1.21 1.699-2.878 2.939-5.008 3.717 2.497.736 4.434 2.016 5.807 3.839zm-24.301-7.098h9.031c2.458 0 4.271-.42 5.438-1.26 1.168-.838 1.751-2.119 1.751-3.84 0-1.802-.583-3.122-1.751-3.963-1.167-.839-2.979-1.259-5.438-1.259h-9.031v10.322zm15.667 17.083c1.146-.861 1.72-2.254 1.72-4.178 0-1.927-.573-3.34-1.72-4.24-1.147-.9-2.991-1.354-5.528-1.354h-10.139v11.061h10.139c2.537 0 4.381-.429 5.528-1.289zm44.393-21.013c.838.777 1.258 1.843 1.258 3.194v22.55c0 1.27-.44 2.293-1.321 3.07-.88.779-2.017 1.17-3.41 1.17-1.311 0-2.354-.369-3.134-1.107-.777-.736-1.167-1.719-1.167-2.949v-.613c-.942 1.557-2.181 2.744-3.717 3.562-1.537.818-3.267 1.229-5.191 1.229-3.81 0-6.646-1.055-8.511-3.164-1.863-2.107-2.794-5.293-2.794-9.555V36.915c0-1.352.418-2.417 1.258-3.194.84-.779 1.977-1.169 3.41-1.169s2.561.39 3.38 1.169c.82.777 1.229 1.843 1.229 3.194v14.378c0 1.803.378 3.134 1.137 3.994.758.859 1.914 1.29 3.472 1.29 1.801 0 3.265-.616 4.394-1.843 1.124-1.23 1.689-2.848 1.689-4.854V36.915c0-1.352.408-2.417 1.228-3.194.82-.779 1.944-1.169 3.38-1.169 1.432 0 2.569.389 3.41 1.169zm13.299 29.492c-1.844-.408-3.461-1.064-4.854-1.967a3.77 3.77 0 0 1-1.413-1.475c-.327-.613-.49-1.311-.49-2.09 0-.941.266-1.729.799-2.364.531-.634 1.188-.953 1.965-.953a4.91 4.91 0 0 1 1.6.276c.53.184 1.084.4 1.657.646 1.147.533 2.273.951 3.38 1.258 1.106.309 2.478.463 4.117.463 1.434 0 2.55-.227 3.348-.677.8-.45 1.199-1.063 1.199-1.844 0-.573-.176-1.034-.522-1.383-.35-.347-.993-.665-1.937-.951s-2.438-.636-4.484-1.046c-3.646-.694-6.268-1.74-7.864-3.134-1.598-1.392-2.397-3.337-2.397-5.835 0-1.844.563-3.503 1.69-4.978 1.127-1.476 2.673-2.633 4.638-3.473 1.967-.838 4.18-1.258 6.637-1.258 1.761 0 3.481.224 5.161.674 1.68.452 3.174 1.087 4.484 1.906 1.271.777 1.906 1.924 1.906 3.441 0 .982-.267 1.803-.8 2.457-.533.656-1.188.982-1.967.982-.942 0-2.067-.369-3.378-1.105-1.025-.531-1.956-.932-2.796-1.197-.84-.268-1.834-.4-2.98-.4-1.271 0-2.273.236-3.011.707s-1.106 1.116-1.106 1.934c0 .861.431 1.518 1.29 1.968.862.451 2.521.902 4.978 1.352 2.744.533 4.895 1.178 6.453 1.936 1.555.758 2.682 1.709 3.378 2.856s1.044 2.603 1.044 4.363c0 2.907-1.197 5.222-3.594 6.942-2.395 1.719-5.602 2.58-9.615 2.58-2.502.002-4.672-.203-6.516-.611z" fill="#252D2A"/></svg>